<svg width="106" height="20" viewBox="0 0 106 20" fill="none" xmlns="http://www.w3.org/2000/svg">
<path d="M0.792007 12.352C0.792007 10.976 1.07201 9.77602 1.63201 8.75202C2.19201 7.71202 2.96801 6.91202 3.96001 6.35202C4.95201 5.77602 6.08801 5.48802 7.36801 5.48802C9.01601 5.48802 10.376 5.90402 11.448 6.73602C12.536 7.55202 13.264 8.70402 13.632 10.192H10.008C9.81601 9.61602 9.48801 9.16802 9.02401 8.84802C8.57601 8.51202 8.01601 8.34402 7.34401 8.34402C6.38401 8.34402 5.62401 8.69602 5.06401 9.40002C4.50401 10.088 4.22401 11.072 4.22401 12.352C4.22401 13.616 4.50401 14.6 5.06401 15.304C5.62401 15.992 6.38401 16.336 7.34401 16.336C8.70401 16.336 9.59201 15.728 10.008 14.512H13.632C13.264 15.952 12.536 17.096 11.448 17.944C10.36 18.792 9.00001 19.216 7.36801 19.216C6.08801 19.216 4.95201 18.936 3.96001 18.376C2.96801 17.8 2.19201 17 1.63201 15.976C1.07201 14.936 0.792007 13.728 0.792007 12.352Z" fill="black"/>
<path d="M21.6375 15.904L24.9975 5.70402H28.5735L23.6535 19H19.5735L14.6775 5.70402H18.2775L21.6375 15.904Z" fill="black"/>
<path d="M46.9727 5.51202C48.6047 5.51202 49.9167 6.01602 50.9087 7.02402C51.9167 8.01602 52.4207 9.40802 52.4207 11.2V19H49.0607V11.656C49.0607 10.616 48.7967 9.82402 48.2687 9.28002C47.7407 8.72002 47.0207 8.44002 46.1087 8.44002C45.1967 8.44002 44.4687 8.72002 43.9247 9.28002C43.3967 9.82402 43.1327 10.616 43.1327 11.656V19H39.7727V11.656C39.7727 10.616 39.5087 9.82402 38.9807 9.28002C38.4527 8.72002 37.7327 8.44002 36.8207 8.44002C35.8927 8.44002 35.1567 8.72002 34.6127 9.28002C34.0847 9.82402 33.8207 10.616 33.8207 11.656V19H30.4607V5.70402H33.8207V7.31202C34.2527 6.75202 34.8047 6.31202 35.4767 5.99202C36.1647 5.67202 36.9167 5.51202 37.7327 5.51202C38.7727 5.51202 39.7007 5.73602 40.5167 6.18402C41.3327 6.61602 41.9647 7.24002 42.4127 8.05602C42.8447 7.28802 43.4687 6.67202 44.2847 6.20802C45.1167 5.74402 46.0127 5.51202 46.9727 5.51202Z" fill="black"/>
<path d="M63.4811 19L58.9691 13.336V19H55.6091V1.24002H58.9691V11.344L63.4331 5.70402H67.8011L61.9451 12.376L67.8491 19H63.4811Z" fill="black"/>
<path d="M72.9848 7.76802C73.4168 7.06402 73.9768 6.51202 74.6648 6.11202C75.3688 5.71202 76.1688 5.51202 77.0648 5.51202V9.04002H76.1768C75.1208 9.04002 74.3208 9.28802 73.7768 9.78402C73.2488 10.28 72.9848 11.144 72.9848 12.376V19H69.6248V5.70402H72.9848V7.76802Z" fill="black"/>
<path d="M80.8159 19.168C80.2079 19.168 79.7039 18.984 79.3039 18.616C78.9199 18.232 78.7279 17.76 78.7279 17.2C78.7279 16.64 78.9199 16.176 79.3039 15.808C79.7039 15.424 80.2079 15.232 80.8159 15.232C81.4079 15.232 81.8959 15.424 82.2799 15.808C82.6639 16.176 82.8559 16.64 82.8559 17.2C82.8559 17.76 82.6639 18.232 82.2799 18.616C81.8959 18.984 81.4079 19.168 80.8159 19.168Z" fill="black"/>
<path d="M87.2663 4.12002C86.6743 4.12002 86.1783 3.93602 85.7783 3.56802C85.3943 3.18402 85.2023 2.71202 85.2023 2.15202C85.2023 1.59202 85.3943 1.12802 85.7783 0.760021C86.1783 0.376021 86.6743 0.184021 87.2663 0.184021C87.8583 0.184021 88.3463 0.376021 88.7303 0.760021C89.1303 1.12802 89.3303 1.59202 89.3303 2.15202C89.3303 2.71202 89.1303 3.18402 88.7303 3.56802C88.3463 3.93602 87.8583 4.12002 87.2663 4.12002ZM88.9223 5.70402V19H85.5623V5.70402H88.9223Z" fill="black"/>
<path d="M98.1459 19.216C96.8659 19.216 95.7139 18.936 94.6899 18.376C93.6659 17.8 92.8579 16.992 92.2659 15.952C91.6899 14.912 91.4019 13.712 91.4019 12.352C91.4019 10.992 91.6979 9.79202 92.2899 8.75202C92.8979 7.71202 93.7219 6.91202 94.7619 6.35202C95.8019 5.77602 96.9619 5.48802 98.2419 5.48802C99.5219 5.48802 100.682 5.77602 101.722 6.35202C102.762 6.91202 103.578 7.71202 104.17 8.75202C104.778 9.79202 105.082 10.992 105.082 12.352C105.082 13.712 104.77 14.912 104.146 15.952C103.538 16.992 102.706 17.8 101.65 18.376C100.61 18.936 99.4419 19.216 98.1459 19.216ZM98.1459 16.288C98.7539 16.288 99.3219 16.144 99.8499 15.856C100.394 15.552 100.826 15.104 101.146 14.512C101.466 13.92 101.626 13.2 101.626 12.352C101.626 11.088 101.29 10.12 100.618 9.44802C99.9619 8.76002 99.1539 8.41602 98.1939 8.41602C97.2339 8.41602 96.4259 8.76002 95.7699 9.44802C95.1299 10.12 94.8099 11.088 94.8099 12.352C94.8099 13.616 95.1219 14.592 95.7459 15.28C96.3859 15.952 97.1859 16.288 98.1459 16.288Z" fill="black"/>
</svg>
